<svg width="26" height="27" viewBox="0 0 26 27" fill="none" xmlns="http://www.w3.org/2000/svg">
<path d="M13.1433 12.4406C12.4965 12.4406 11.977 12.9602 11.977 13.6069C11.977 14.2536 12.4965 14.7731 13.1433 14.7731C13.79 14.7731 14.3095 14.2536 14.3095 13.6069C14.3095 12.9602 13.79 12.4406 13.1433 12.4406ZM13.1433 3.00464C7.29082 3.00464 2.54102 7.75445 2.54102 13.6069C2.54102 19.4593 7.29082 24.2091 13.1433 24.2091C18.9957 24.2091 23.7455 19.4593 23.7455 13.6069C23.7455 7.75445 18.9957 3.00464 13.1433 3.00464ZM15.4652 15.9288L6.78192 19.9682L10.8214 11.285L19.5046 7.24554L15.4652 15.9288Z" fill="#F8F8F8"/>
</svg>
