<svg width="27" height="26" viewBox="0 0 27 26" fill="none" xmlns="http://www.w3.org/2000/svg">
<path d="M13.3584 17.2681C13.1107 17.2686 12.8707 17.1823 12.6799 17.0243L6.31856 11.7231C6.10204 11.5432 5.96588 11.2846 5.94003 11.0042C5.91419 10.7239 6.00077 10.4447 6.18073 10.2282C6.36069 10.0117 6.61929 9.87555 6.89964 9.8497C7.17999 9.82385 7.45913 9.91043 7.67564 10.0904L13.3584 14.8402L19.0413 10.26C19.1497 10.172 19.2745 10.1062 19.4084 10.0665C19.5424 10.0268 19.6829 10.014 19.8218 10.0288C19.9607 10.0436 20.0953 10.0856 20.2179 10.1526C20.3405 10.2196 20.4487 10.3102 20.5362 10.4191C20.6333 10.5281 20.7068 10.656 20.7522 10.7947C20.7975 10.9335 20.8138 11.0801 20.7998 11.2254C20.7859 11.3707 20.7421 11.5116 20.6712 11.6392C20.6003 11.7668 20.5038 11.8784 20.3877 11.967L14.0264 17.0879C13.8302 17.221 13.595 17.2844 13.3584 17.2681Z" fill="#F8F8F8"/>
</svg>
