<svg width="22" height="22" viewBox="0 0 22 22" fill="none" xmlns="http://www.w3.org/2000/svg">
<path d="M11.252 10.5854C10.6662 10.5854 10.1044 10.3527 9.69017 9.93846C9.27594 9.52423 9.04323 8.96241 9.04323 8.3766C9.04323 7.79079 9.27594 7.22897 9.69017 6.81474C10.1044 6.40051 10.6662 6.1678 11.252 6.1678C11.8378 6.1678 12.3997 6.40051 12.8139 6.81474C13.2281 7.22897 13.4608 7.79079 13.4608 8.3766C13.4608 8.66667 13.4037 8.95389 13.2927 9.22187C13.1817 9.48986 13.019 9.73335 12.8139 9.93846C12.6088 10.1436 12.3653 10.3063 12.0973 10.4173C11.8293 10.5283 11.5421 10.5854 11.252 10.5854ZM11.252 2.19196C9.61176 2.19196 8.03867 2.84355 6.87882 4.0034C5.71898 5.16324 5.06738 6.73633 5.06738 8.3766C5.06738 13.0151 11.252 19.8624 11.252 19.8624C11.252 19.8624 17.4367 13.0151 17.4367 8.3766C17.4367 6.73633 16.7851 5.16324 15.6252 4.0034C14.4654 2.84355 12.8923 2.19196 11.252 2.19196Z" fill="#F8F8F8"/>
</svg>
