<svg width="23" height="24" viewBox="0 0 23 24" fill="none" xmlns="http://www.w3.org/2000/svg">
<path d="M11.507 13.7661C12.6952 13.7661 13.6585 12.8028 13.6585 11.6146C13.6585 10.4263 12.6952 9.46307 11.507 9.46307C10.3187 9.46307 9.35547 10.4263 9.35547 11.6146C9.35547 12.8028 10.3187 13.7661 11.507 13.7661Z" fill="white"/>
<path d="M21.1169 13.5868L21.0958 13.5698L19.6812 12.4604C19.5916 12.3895 19.5201 12.2984 19.4726 12.1946C19.4251 12.0907 19.4029 11.977 19.4078 11.8629V11.3448C19.4033 11.2314 19.4258 11.1185 19.4734 11.0155C19.521 10.9125 19.5924 10.8223 19.6817 10.7522L21.0958 9.64237L21.1169 9.62534C21.335 9.44365 21.4814 9.19031 21.5298 8.91062C21.5783 8.63092 21.5256 8.34311 21.3814 8.09865L19.467 4.78621C19.4648 4.78309 19.4628 4.77979 19.4611 4.77635C19.3161 4.53528 19.0912 4.35262 18.8255 4.26009C18.5598 4.16757 18.27 4.17102 18.0066 4.26985L17.9909 4.27568L16.328 4.94489C16.223 4.98733 16.1095 5.00421 15.9967 4.99416C15.8839 4.98411 15.7752 4.9474 15.6794 4.88707C15.5324 4.79443 15.383 4.70688 15.2312 4.6244C15.1327 4.57103 15.0482 4.49527 14.9845 4.40324C14.9207 4.31122 14.8795 4.20549 14.8641 4.09459L14.6135 2.32004L14.6081 2.28776C14.5536 2.01291 14.4061 1.7652 14.1904 1.58628C13.9748 1.40735 13.7041 1.30811 13.4239 1.30524H9.59059C9.30644 1.30615 9.03172 1.40731 8.81484 1.5909C8.59796 1.77449 8.45283 2.02873 8.40502 2.30883L8.40098 2.33393L8.15132 4.11207C8.136 4.22265 8.09508 4.32813 8.03182 4.42011C7.96855 4.51209 7.88469 4.58803 7.7869 4.64188C7.63466 4.72388 7.48517 4.81089 7.33867 4.90275C7.24304 4.96272 7.13456 4.99915 7.02212 5.00904C6.90968 5.01894 6.7965 5.00202 6.69187 4.95968L5.02758 4.28733L5.01189 4.28105C4.74809 4.18212 4.45795 4.17879 4.19195 4.27166C3.92595 4.36453 3.70093 4.54772 3.55603 4.78935L3.55021 4.79921L1.63311 8.11389C1.48862 8.3586 1.43588 8.64673 1.48433 8.92675C1.53278 9.20678 1.67926 9.46044 1.89757 9.64237L1.91864 9.6594L3.33326 10.7688C3.42284 10.8396 3.49434 10.9308 3.54187 11.0346C3.5894 11.1385 3.61161 11.2522 3.60668 11.3663V11.8844C3.61117 11.9978 3.58869 12.1107 3.54108 12.2137C3.49347 12.3167 3.42209 12.4069 3.33281 12.477L1.91864 13.5868L1.89757 13.6039C1.67947 13.7855 1.53311 14.0389 1.48466 14.3186C1.43621 14.5983 1.48883 14.8861 1.63311 15.1305L3.54752 18.443C3.54972 18.4461 3.55167 18.4494 3.55334 18.4528C3.6984 18.6939 3.92331 18.8766 4.18901 18.9691C4.45472 19.0616 4.74444 19.0582 5.00786 18.9593L5.02355 18.9535L6.68515 18.2843C6.7901 18.2419 6.90365 18.225 7.01641 18.235C7.12918 18.2451 7.23794 18.2818 7.33374 18.3421C7.48076 18.4351 7.63017 18.5226 7.78197 18.6048C7.88039 18.6582 7.9649 18.7339 8.02866 18.8259C8.09243 18.918 8.13368 19.0237 8.14907 19.1346L8.39829 20.9091L8.40367 20.9414C8.45831 21.2167 8.6062 21.4648 8.82241 21.6438C9.03862 21.8227 9.30993 21.9217 9.59059 21.924H13.4239C13.708 21.923 13.9827 21.8219 14.1996 21.6383C14.4165 21.4547 14.5616 21.2005 14.6095 20.9204L14.6135 20.8953L14.8632 19.1171C14.8787 19.0063 14.92 18.9007 14.9836 18.8087C15.0473 18.7167 15.1316 18.6409 15.2298 18.5873C15.3831 18.5048 15.5328 18.4174 15.678 18.3264C15.7737 18.2665 15.8822 18.23 15.9946 18.2201C16.107 18.2102 16.2202 18.2272 16.3248 18.2695L17.9891 18.9396L18.0048 18.9459C18.2686 19.045 18.5588 19.0484 18.8249 18.9555C19.0909 18.8626 19.3159 18.6794 19.4607 18.4376C19.4625 18.4342 19.4644 18.4309 19.4665 18.4277L21.3809 15.1157C21.5257 14.8711 21.5786 14.5828 21.5302 14.3027C21.4819 14.0226 21.3353 13.7688 21.1169 13.5868ZM15.0891 11.7831C15.0564 12.4773 14.8228 13.1469 14.4166 13.7108C14.0104 14.2746 13.4492 14.7082 12.8011 14.959C12.153 15.2097 11.4461 15.2668 10.7662 15.1232C10.0863 14.9796 9.46275 14.6415 8.97142 14.1501C8.48009 13.6587 8.14212 13.0352 7.9986 12.3553C7.85509 11.6754 7.91222 10.9684 8.16305 10.3203C8.41387 9.67231 8.84758 9.1111 9.41145 8.70498C9.97531 8.29886 10.645 8.06532 11.3391 8.03276C11.8375 8.01082 12.3349 8.09282 12.7998 8.27354C13.2648 8.45425 13.687 8.72974 14.0397 9.08247C14.3924 9.4352 14.6678 9.85747 14.8485 10.3224C15.0291 10.7874 15.1111 11.2848 15.0891 11.7831Z" fill="white"/>
</svg>
