<svg width="26" height="27" viewBox="0 0 26 27" fill="none" xmlns="http://www.w3.org/2000/svg">
<path d="M12.9362 21.0285C13.1959 21.0285 13.4466 21.1238 13.6406 21.2964C13.8347 21.469 13.9587 21.7067 13.989 21.9646L13.9965 22.0887V23.1489C13.9962 23.4191 13.8927 23.6791 13.7072 23.8756C13.5217 24.0721 13.2681 24.1903 12.9984 24.2061C12.7286 24.222 12.463 24.1342 12.2557 23.9608C12.0485 23.7873 11.9153 23.5413 11.8834 23.273L11.876 23.1489V22.0887C11.876 21.8075 11.9877 21.5378 12.1865 21.339C12.3854 21.1402 12.655 21.0285 12.9362 21.0285ZM18.1843 18.855C18.3669 18.6725 18.6098 18.5628 18.8675 18.5466C19.1251 18.5304 19.3799 18.6088 19.5838 18.767L19.6835 18.855L20.4331 19.6046C20.6232 19.7954 20.7336 20.0514 20.7419 20.3206C20.7501 20.5899 20.6555 20.8522 20.4774 21.0542C20.2992 21.2562 20.0508 21.3829 19.7827 21.4084C19.5145 21.434 19.2467 21.3565 19.0336 21.1917L18.9339 21.1037L18.1843 20.3542C17.9856 20.1553 17.8739 19.8857 17.8739 19.6046C17.8739 19.3234 17.9856 19.0538 18.1843 18.855ZM7.68812 18.855C7.88688 19.0538 7.99854 19.3234 7.99854 19.6046C7.99854 19.8857 7.88688 20.1553 7.68812 20.3542L6.93854 21.1037C6.73858 21.2969 6.47077 21.4037 6.19278 21.4013C5.91479 21.3989 5.64887 21.2874 5.4523 21.0908C5.25572 20.8943 5.14422 20.6283 5.14181 20.3503C5.13939 20.0724 5.24625 19.8045 5.43938 19.6046L6.18896 18.855C6.38778 18.6562 6.65741 18.5446 6.93854 18.5446C7.21968 18.5446 7.4893 18.6562 7.68812 18.855ZM12.9362 7.24554C14.6234 7.24554 16.2414 7.91575 17.4344 9.10874C18.6274 10.3017 19.2976 11.9198 19.2976 13.6069C19.2976 15.294 18.6274 16.9121 17.4344 18.105C16.2414 19.298 14.6234 19.9682 12.9362 19.9682C11.2491 19.9682 9.63107 19.298 8.43808 18.105C7.2451 16.9121 6.57488 15.294 6.57488 13.6069C6.57488 11.9198 7.2451 10.3017 8.43808 9.10874C9.63107 7.91575 11.2491 7.24554 12.9362 7.24554ZM12.9362 9.36599C11.8115 9.36599 10.7328 9.8128 9.93747 10.6081C9.14214 11.4034 8.69533 12.4821 8.69533 13.6069C8.69533 14.7316 9.14214 15.8103 9.93747 16.6057C10.7328 17.401 11.8115 17.8478 12.9362 17.8478V9.36599ZM4.45443 12.5467C4.73562 12.5467 5.0053 12.6584 5.20413 12.8572C5.40296 13.056 5.51466 13.3257 5.51466 13.6069C5.51466 13.8881 5.40296 14.1578 5.20413 14.3566C5.0053 14.5554 4.73562 14.6671 4.45443 14.6671H3.39421C3.11302 14.6671 2.84335 14.5554 2.64452 14.3566C2.44569 14.1578 2.33398 13.8881 2.33398 13.6069C2.33398 13.3257 2.44569 13.056 2.64452 12.8572C2.84335 12.6584 3.11302 12.5467 3.39421 12.5467H4.45443ZM22.4783 12.5467C22.7485 12.547 23.0084 12.6504 23.2049 12.8359C23.4014 13.0215 23.5196 13.275 23.5355 13.5448C23.5513 13.8145 23.4636 14.0802 23.2901 14.2874C23.1167 14.4946 22.8706 14.6278 22.6023 14.6597L22.4783 14.6671H21.418C21.1478 14.6668 20.8879 14.5633 20.6914 14.3778C20.4949 14.1923 20.3766 13.9388 20.3608 13.669C20.345 13.3993 20.4327 13.1336 20.6062 12.9264C20.7796 12.7192 21.0257 12.586 21.294 12.5541L21.418 12.5467H22.4783ZM6.93854 6.11004L7.68812 6.85962C7.88125 7.05958 7.98811 7.32739 7.9857 7.60538C7.98328 7.88337 7.87178 8.14929 7.67521 8.34586C7.47863 8.54243 7.21271 8.65394 6.93473 8.65635C6.65674 8.65877 6.38892 8.5519 6.18896 8.35878L5.43938 7.6092C5.33582 7.51195 5.25286 7.39487 5.19543 7.26493C5.138 7.135 5.10727 6.99484 5.10506 6.85279C5.10286 6.71074 5.12922 6.5697 5.18259 6.43804C5.23596 6.30638 5.31524 6.18679 5.41573 6.08637C5.51622 5.98595 5.63587 5.90675 5.76757 5.85348C5.89927 5.8002 6.04033 5.77394 6.18237 5.77624C6.32442 5.77855 6.46455 5.80938 6.59445 5.8669C6.72435 5.92443 6.84136 6.00641 6.93854 6.11004ZM18.9339 6.11004C19.1247 5.91989 19.3807 5.80949 19.65 5.80127C19.9192 5.79305 20.1815 5.88762 20.3836 6.06577C20.5856 6.24393 20.7122 6.4923 20.7378 6.76046C20.7633 7.02861 20.6859 7.29644 20.5211 7.50953L20.4331 7.6092L19.6835 8.35878C19.4927 8.54892 19.2367 8.65932 18.9674 8.66754C18.6982 8.67576 18.4359 8.58119 18.2339 8.40304C18.0318 8.22489 17.9052 7.97651 17.8796 7.70835C17.8541 7.4402 17.9316 7.17237 18.0964 6.95928L18.1843 6.85962L18.9339 6.11004ZM12.9362 3.00464C13.1959 3.00467 13.4466 3.10001 13.6406 3.27257C13.8347 3.44514 13.9587 3.68292 13.989 3.94082L13.9965 4.06486V5.12509C13.9962 5.39532 13.8927 5.65524 13.7072 5.85173C13.5217 6.04823 13.2681 6.16648 12.9984 6.18232C12.7286 6.19815 12.463 6.11038 12.2557 5.93694C12.0485 5.7635 11.9153 5.51747 11.8834 5.24914L11.876 5.12509V4.06486C11.876 3.78367 11.9877 3.514 12.1865 3.31517C12.3854 3.11634 12.655 3.00464 12.9362 3.00464Z" fill="#F8F8F8"/>
</svg>
